<mxfile host="app.diagrams.net" agent="Mozilla/5.0 (Windows NT 10.0; Win64; x64) AppleWebKit/537.36 (KHTML, like Gecko) Chrome/134.0.0.0 Safari/537.36 Edg/134.0.0.0" version="26.1.1">
  <diagram name="Page-1" id="8378b5f6-a2b2-b727-a746-972ab9d02e00">
    <mxGraphModel dx="1426" dy="781" grid="1" gridSize="10" guides="1" tooltips="1" connect="0" arrows="1" fold="1" page="1" pageScale="1.5" pageWidth="1169" pageHeight="827" background="none" math="0" shadow="0">
      <root>
        <mxCell id="0" />
        <mxCell id="1" parent="0" />
        <mxCell id="63" value="1" style="strokeColor=#DEEDFF;fillColor=#ADC3D9" parent="1" vertex="1">
          <mxGeometry x="184.5" y="502" width="40" height="20" as="geometry" />
        </mxCell>
        <mxCell id="64" value="光伏逆变器1" style="align=left;strokeColor=#DEEDFF;fillColor=#ADC3D9" parent="1" vertex="1">
          <mxGeometry x="224.5" y="502" width="320" height="20" as="geometry" />
        </mxCell>
        <mxCell id="65" value="华为" style="strokeColor=#DEEDFF;fillColor=#ADC3D9" parent="1" vertex="1">
          <mxGeometry x="544.5000000000018" y="502" width="80.00000000000028" height="20" as="geometry" />
        </mxCell>
        <mxCell id="66" value="NB100" style="strokeColor=#DEEDFF;fillColor=#ADC3D9" parent="1" vertex="1">
          <mxGeometry x="624.500000000002" y="502" width="80.00000000000028" height="20" as="geometry" />
        </mxCell>
        <mxCell id="67" value="是" style="strokeColor=#DEEDFF;fillColor=#ADC3D9;fontColor=#009900;" parent="1" vertex="1">
          <mxGeometry x="704.5000000000016" y="502.0000000000002" width="80.00000000000028" height="20" as="geometry" />
        </mxCell>
        <mxCell id="68" value="" style="strokeColor=#DEEDFF" parent="1" vertex="1">
          <mxGeometry x="713.500000000002" y="380.0000000000002" width="20" height="520" as="geometry" />
        </mxCell>
        <mxCell id="69" value="2" style="strokeColor=#DEEDFF;fillColor=#CCE5FF" parent="1" vertex="1">
          <mxGeometry x="184.50000000000026" y="521.9999999999999" width="40" height="20" as="geometry" />
        </mxCell>
        <mxCell id="70" value="光伏逆变器2" style="align=left;strokeColor=#DEEDFF;fillColor=#CCE5FF" parent="1" vertex="1">
          <mxGeometry x="224.50000000000026" y="521.9999999999999" width="319.9999999999998" height="20" as="geometry" />
        </mxCell>
        <mxCell id="71" value="华为" style="strokeColor=#DEEDFF;fillColor=#CCE5FF" parent="1" vertex="1">
          <mxGeometry x="544.500000000002" y="521.9999999999998" width="80.00000000000028" height="20" as="geometry" />
        </mxCell>
        <mxCell id="72" value="NB100" style="strokeColor=#DEEDFF;fillColor=#CCE5FF" parent="1" vertex="1">
          <mxGeometry x="624.5000000000023" y="521.9999999999998" width="80.00000000000028" height="20" as="geometry" />
        </mxCell>
        <mxCell id="73" value="是" style="strokeColor=#DEEDFF;fillColor=#CCE5FF;fontColor=#009900;" parent="1" vertex="1">
          <mxGeometry x="704.5000000000018" y="522.0000000000001" width="80.00000000000028" height="20" as="geometry" />
        </mxCell>
        <mxCell id="74" value="3" style="strokeColor=#DEEDFF" parent="1" vertex="1">
          <mxGeometry x="184.50000000000028" y="541.9999999999998" width="40" height="20" as="geometry" />
        </mxCell>
        <mxCell id="75" value="储能协调控制器" style="align=left;strokeColor=#DEEDFF" parent="1" vertex="1">
          <mxGeometry x="224.50000000000028" y="541.9999999999998" width="319.9999999999997" height="20.000000000000014" as="geometry" />
        </mxCell>
        <mxCell id="76" value="思源" style="strokeColor=#DEEDFF" parent="1" vertex="1">
          <mxGeometry x="544.500000000002" y="541.9999999999998" width="80.00000000000028" height="20" as="geometry" />
        </mxCell>
        <mxCell id="77" value="XK100" style="strokeColor=#DEEDFF" parent="1" vertex="1">
          <mxGeometry x="624.5000000000023" y="541.9999999999998" width="80.00000000000028" height="20" as="geometry" />
        </mxCell>
        <mxCell id="78" value="是" style="strokeColor=#DEEDFF;fontColor=#009900;" parent="1" vertex="1">
          <mxGeometry x="704.5000000000018" y="542" width="80.00000000000028" height="20" as="geometry" />
        </mxCell>
        <mxCell id="84" value="1" style="strokeColor=#DEEDFF" parent="1" vertex="1">
          <mxGeometry x="261.4999999999999" y="663.0000000000002" width="40" height="20" as="geometry" />
        </mxCell>
        <mxCell id="85" value="总有功" style="align=left;strokeColor=#DEEDFF" parent="1" vertex="1">
          <mxGeometry x="301.4999999999999" y="663.0000000000002" width="320.0000000000001" height="20" as="geometry" />
        </mxCell>
        <mxCell id="86" value="100" style="strokeColor=#DEEDFF" parent="1" vertex="1">
          <mxGeometry x="621.5000000000016" y="663.0000000000001" width="80.00000000000028" height="20" as="geometry" />
        </mxCell>
        <mxCell id="87" value="2503180000" style="strokeColor=#DEEDFF" parent="1" vertex="1">
          <mxGeometry x="701.5000000000019" y="663.0000000000001" width="80.00000000000028" height="20" as="geometry" />
        </mxCell>
        <mxCell id="88" value="有效" style="strokeColor=#DEEDFF;fontColor=#009900;" parent="1" vertex="1">
          <mxGeometry x="781.5" y="663" width="80" height="24" as="geometry" />
        </mxCell>
        <mxCell id="89" value="2" style="strokeColor=#DEEDFF" parent="1" vertex="1">
          <mxGeometry x="261.4999999999999" y="683.0000000000005" width="40" height="20" as="geometry" />
        </mxCell>
        <mxCell id="90" value="总无功" style="align=left;strokeColor=#DEEDFF" parent="1" vertex="1">
          <mxGeometry x="301.4999999999999" y="683.0000000000005" width="320.0000000000001" height="20" as="geometry" />
        </mxCell>
        <mxCell id="91" value="10" style="strokeColor=#DEEDFF" parent="1" vertex="1">
          <mxGeometry x="621.5000000000016" y="683.0000000000003" width="80.00000000000028" height="20" as="geometry" />
        </mxCell>
        <mxCell id="92" value="2503180000" style="strokeColor=#DEEDFF" parent="1" vertex="1">
          <mxGeometry x="701.5000000000019" y="683.0000000000003" width="80.00000000000028" height="20" as="geometry" />
        </mxCell>
        <mxCell id="93" value="有效" style="strokeColor=#DEEDFF;fontColor=#009900;" parent="1" vertex="1">
          <mxGeometry x="781.5000000000015" y="683.0000000000007" width="80.00000000000028" height="20" as="geometry" />
        </mxCell>
        <mxCell id="94" value="3" style="strokeColor=#DEEDFF" parent="1" vertex="1">
          <mxGeometry x="261.5000000000006" y="703.0000000000007" width="40" height="20" as="geometry" />
        </mxCell>
        <mxCell id="95" value="SOC" style="align=left;strokeColor=#DEEDFF" parent="1" vertex="1">
          <mxGeometry x="301.5000000000006" y="703.0000000000007" width="319.9999999999994" height="20" as="geometry" />
        </mxCell>
        <mxCell id="96" value="45" style="strokeColor=#DEEDFF" parent="1" vertex="1">
          <mxGeometry x="621.5000000000024" y="703.0000000000007" width="80.00000000000028" height="20" as="geometry" />
        </mxCell>
        <mxCell id="97" value="2503180000" style="strokeColor=#DEEDFF" parent="1" vertex="1">
          <mxGeometry x="701.5000000000027" y="703.0000000000007" width="80.00000000000028" height="20" as="geometry" />
        </mxCell>
        <mxCell id="98" value="有效" style="strokeColor=#DEEDFF;fontColor=#009900;" parent="1" vertex="1">
          <mxGeometry x="781.5000000000022" y="703.0000000000009" width="80.00000000000028" height="20" as="geometry" />
        </mxCell>
        <mxCell id="99" value="4" style="strokeColor=#DEEDFF" parent="1" vertex="1">
          <mxGeometry x="261.5000000000006" y="723.0000000000006" width="40" height="20" as="geometry" />
        </mxCell>
        <mxCell id="100" value="SOH" style="align=left;strokeColor=#DEEDFF" parent="1" vertex="1">
          <mxGeometry x="301.5000000000006" y="723.0000000000006" width="319.9999999999994" height="20" as="geometry" />
        </mxCell>
        <mxCell id="101" value="98" style="strokeColor=#DEEDFF" parent="1" vertex="1">
          <mxGeometry x="621.5000000000024" y="723.0000000000006" width="80.00000000000028" height="20" as="geometry" />
        </mxCell>
        <mxCell id="102" value="2503180000" style="strokeColor=#DEEDFF" parent="1" vertex="1">
          <mxGeometry x="701.5000000000027" y="723.0000000000006" width="80.00000000000028" height="20" as="geometry" />
        </mxCell>
        <mxCell id="103" value="无效" style="strokeColor=#DEEDFF;fontColor=#CC0000;" parent="1" vertex="1">
          <mxGeometry x="781.5000000000022" y="723.0000000000008" width="80.00000000000028" height="20" as="geometry" />
        </mxCell>
        <mxCell id="104" value="5" style="strokeColor=#DEEDFF;fillColor=#CCE5FF" parent="1" vertex="1">
          <mxGeometry x="261.50000000000034" y="743.000000000001" width="40" height="20" as="geometry" />
        </mxCell>
        <mxCell id="105" value="..." style="align=left;strokeColor=#DEEDFF;fillColor=#CCE5FF" parent="1" vertex="1">
          <mxGeometry x="301.50000000000034" y="743.000000000001" width="319.99999999999966" height="20.00000000000003" as="geometry" />
        </mxCell>
        <mxCell id="106" value="" style="strokeColor=#DEEDFF;fillColor=#CCE5FF" parent="1" vertex="1">
          <mxGeometry x="621.500000000002" y="743.0000000000009" width="80.00000000000028" height="20" as="geometry" />
        </mxCell>
        <mxCell id="107" value="" style="strokeColor=#DEEDFF;fillColor=#CCE5FF" parent="1" vertex="1">
          <mxGeometry x="701.5000000000025" y="743.0000000000009" width="80.00000000000028" height="20" as="geometry" />
        </mxCell>
        <mxCell id="108" value="" style="strokeColor=#DEEDFF;fillColor=#CCE5FF" parent="1" vertex="1">
          <mxGeometry x="781.5000000000018" y="743.0000000000013" width="80.00000000000028" height="20" as="geometry" />
        </mxCell>
        <mxCell id="2" value="IED Name" style="fillColor=#23445D;strokeColor=#FFFFFF;strokeWidth=2;fontColor=#FFFFFF;fontStyle=1" parent="1" vertex="1">
          <mxGeometry x="224.5" y="462" width="320" height="40" as="geometry" />
        </mxCell>
        <mxCell id="3" value="" style="fillColor=#23445D;strokeColor=#FFFFFF;strokeWidth=2;fontColor=#FFFFFF;fontStyle=1" parent="1" vertex="1">
          <mxGeometry x="184.5" y="462" width="40" height="40" as="geometry" />
        </mxCell>
        <mxCell id="12" value="厂商" style="fillColor=#23445D;strokeColor=#FFFFFF;strokeWidth=2;fontColor=#FFFFFF;fontStyle=1" parent="1" vertex="1">
          <mxGeometry x="544.5000000000018" y="462.00000000000006" width="80.00000000000006" height="40.00000000000001" as="geometry" />
        </mxCell>
        <mxCell id="13" value="型号" style="fillColor=#23445D;strokeColor=#FFFFFF;strokeWidth=2;fontColor=#FFFFFF;fontStyle=1" parent="1" vertex="1">
          <mxGeometry x="624.5000000000018" y="462.00000000000006" width="80.00000000000006" height="40.00000000000001" as="geometry" />
        </mxCell>
        <mxCell id="14" value="Connected" style="fillColor=#23445D;strokeColor=#FFFFFF;strokeWidth=2;fontColor=#FFFFFF;fontStyle=1" parent="1" vertex="1">
          <mxGeometry x="704.5000000000019" y="462.0000000000001" width="80.00000000000006" height="40.00000000000001" as="geometry" />
        </mxCell>
        <mxCell id="DXd-vJ10sq-LHo_4Uk0n-281" value="" style="shape=mxgraph.arrows.bent_right_arrow;fillColor=#AE4132;strokeColor=none;strokeWidth=2;direction=south" vertex="1" parent="1">
          <mxGeometry x="259" y="570" width="42.5" height="42" as="geometry" />
        </mxCell>
        <mxCell id="DXd-vJ10sq-LHo_4Uk0n-282" value="Analog" style="fillColor=#23445D;strokeColor=#FFFFFF;strokeWidth=2;fontColor=#FFFFFF;fontStyle=1" vertex="1" parent="1">
          <mxGeometry x="301.5" y="623" width="320" height="40" as="geometry" />
        </mxCell>
        <mxCell id="DXd-vJ10sq-LHo_4Uk0n-283" value="" style="fillColor=#23445D;strokeColor=#FFFFFF;strokeWidth=2;fontColor=#FFFFFF;fontStyle=1" vertex="1" parent="1">
          <mxGeometry x="261.5" y="623" width="40" height="40" as="geometry" />
        </mxCell>
        <mxCell id="DXd-vJ10sq-LHo_4Uk0n-284" value="当前值" style="fillColor=#23445D;strokeColor=#FFFFFF;strokeWidth=2;fontColor=#FFFFFF;fontStyle=1" vertex="1" parent="1">
          <mxGeometry x="621.5000000000018" y="623" width="80.00000000000006" height="40.00000000000001" as="geometry" />
        </mxCell>
        <mxCell id="DXd-vJ10sq-LHo_4Uk0n-285" value="刷新时间" style="fillColor=#23445D;strokeColor=#FFFFFF;strokeWidth=2;fontColor=#FFFFFF;fontStyle=1" vertex="1" parent="1">
          <mxGeometry x="701.5000000000018" y="623" width="80.00000000000006" height="40.00000000000001" as="geometry" />
        </mxCell>
        <mxCell id="DXd-vJ10sq-LHo_4Uk0n-286" value="品质" style="fillColor=#23445D;strokeColor=#FFFFFF;strokeWidth=2;fontColor=#FFFFFF;fontStyle=1" vertex="1" parent="1">
          <mxGeometry x="781.5000000000019" y="623.0000000000001" width="80.00000000000006" height="40.00000000000001" as="geometry" />
        </mxCell>
        <mxCell id="DXd-vJ10sq-LHo_4Uk0n-287" value="是" style="strokeColor=#DEEDFF;fillColor=#CCE5FF;fontColor=#009900;" vertex="1" parent="1">
          <mxGeometry x="704.5000000000018" y="502.0000000000001" width="80.00000000000028" height="20" as="geometry" />
        </mxCell>
        <mxCell id="DXd-vJ10sq-LHo_4Uk0n-289" style="edgeStyle=orthogonalEdgeStyle;rounded=0;orthogonalLoop=1;jettySize=auto;html=1;" edge="1" parent="1" source="DXd-vJ10sq-LHo_4Uk0n-288" target="2">
          <mxGeometry relative="1" as="geometry" />
        </mxCell>
        <mxCell id="DXd-vJ10sq-LHo_4Uk0n-288" value="&lt;font style=&quot;font-size: 14px;&quot;&gt;主线程&lt;/font&gt;" style="rounded=1;whiteSpace=wrap;html=1;" vertex="1" parent="1">
          <mxGeometry x="184" y="340" width="106" height="30" as="geometry" />
        </mxCell>
        <mxCell id="DXd-vJ10sq-LHo_4Uk0n-290" style="edgeStyle=orthogonalEdgeStyle;rounded=0;orthogonalLoop=1;jettySize=auto;html=1;entryX=0.519;entryY=0.05;entryDx=0;entryDy=0;entryPerimeter=0;" edge="1" parent="1" target="12">
          <mxGeometry relative="1" as="geometry">
            <mxPoint x="240" y="370" as="sourcePoint" />
            <Array as="points">
              <mxPoint x="240" y="420" />
              <mxPoint x="586" y="420" />
            </Array>
          </mxGeometry>
        </mxCell>
        <mxCell id="DXd-vJ10sq-LHo_4Uk0n-291" style="edgeStyle=orthogonalEdgeStyle;rounded=0;orthogonalLoop=1;jettySize=auto;html=1;entryX=0.481;entryY=0.075;entryDx=0;entryDy=0;entryPerimeter=0;" edge="1" parent="1" source="DXd-vJ10sq-LHo_4Uk0n-288" target="13">
          <mxGeometry relative="1" as="geometry">
            <Array as="points">
              <mxPoint x="237" y="410" />
              <mxPoint x="663" y="410" />
            </Array>
          </mxGeometry>
        </mxCell>
        <mxCell id="DXd-vJ10sq-LHo_4Uk0n-293" style="edgeStyle=orthogonalEdgeStyle;rounded=0;orthogonalLoop=1;jettySize=auto;html=1;entryX=0.502;entryY=0.05;entryDx=0;entryDy=0;entryPerimeter=0;" edge="1" parent="1" source="DXd-vJ10sq-LHo_4Uk0n-288" target="DXd-vJ10sq-LHo_4Uk0n-282">
          <mxGeometry relative="1" as="geometry" />
        </mxCell>
        <mxCell id="DXd-vJ10sq-LHo_4Uk0n-294" value="初始化时构建静态模型数据" style="text;html=1;align=center;verticalAlign=middle;whiteSpace=wrap;rounded=0;" vertex="1" parent="1">
          <mxGeometry x="140" y="380" width="95" height="30" as="geometry" />
        </mxCell>
        <mxCell id="DXd-vJ10sq-LHo_4Uk0n-296" style="edgeStyle=orthogonalEdgeStyle;rounded=0;orthogonalLoop=1;jettySize=auto;html=1;" edge="1" parent="1" source="DXd-vJ10sq-LHo_4Uk0n-295" target="14">
          <mxGeometry relative="1" as="geometry" />
        </mxCell>
        <mxCell id="DXd-vJ10sq-LHo_4Uk0n-295" value="&lt;font style=&quot;font-size: 14px;&quot;&gt;采集线程&lt;/font&gt;" style="rounded=1;whiteSpace=wrap;html=1;" vertex="1" parent="1">
          <mxGeometry x="733.5" y="330" width="106" height="30" as="geometry" />
        </mxCell>
        <mxCell id="DXd-vJ10sq-LHo_4Uk0n-297" style="edgeStyle=orthogonalEdgeStyle;rounded=0;orthogonalLoop=1;jettySize=auto;html=1;entryX=0.544;entryY=0.025;entryDx=0;entryDy=0;entryPerimeter=0;" edge="1" parent="1" source="DXd-vJ10sq-LHo_4Uk0n-295" target="DXd-vJ10sq-LHo_4Uk0n-284">
          <mxGeometry relative="1" as="geometry">
            <Array as="points">
              <mxPoint x="800" y="580" />
              <mxPoint x="665" y="580" />
            </Array>
          </mxGeometry>
        </mxCell>
        <mxCell id="DXd-vJ10sq-LHo_4Uk0n-298" style="edgeStyle=orthogonalEdgeStyle;rounded=0;orthogonalLoop=1;jettySize=auto;html=1;entryX=0.519;entryY=0.05;entryDx=0;entryDy=0;entryPerimeter=0;" edge="1" parent="1" source="DXd-vJ10sq-LHo_4Uk0n-295" target="DXd-vJ10sq-LHo_4Uk0n-285">
          <mxGeometry relative="1" as="geometry">
            <Array as="points">
              <mxPoint x="800" y="580" />
              <mxPoint x="743" y="580" />
            </Array>
          </mxGeometry>
        </mxCell>
        <mxCell id="DXd-vJ10sq-LHo_4Uk0n-299" style="edgeStyle=orthogonalEdgeStyle;rounded=0;orthogonalLoop=1;jettySize=auto;html=1;entryX=0.544;entryY=0.1;entryDx=0;entryDy=0;entryPerimeter=0;" edge="1" parent="1" source="DXd-vJ10sq-LHo_4Uk0n-295" target="DXd-vJ10sq-LHo_4Uk0n-286">
          <mxGeometry relative="1" as="geometry">
            <Array as="points">
              <mxPoint x="800" y="580" />
              <mxPoint x="825" y="580" />
            </Array>
          </mxGeometry>
        </mxCell>
        <mxCell id="DXd-vJ10sq-LHo_4Uk0n-300" value="写入采集数据" style="text;html=1;align=center;verticalAlign=middle;whiteSpace=wrap;rounded=0;" vertex="1" parent="1">
          <mxGeometry x="686.5" y="370" width="95" height="30" as="geometry" />
        </mxCell>
        <mxCell id="DXd-vJ10sq-LHo_4Uk0n-301" value="&lt;font style=&quot;font-size: 14px;&quot;&gt;其他业务线程&lt;/font&gt;" style="rounded=1;whiteSpace=wrap;html=1;" vertex="1" parent="1">
          <mxGeometry x="930" y="330" width="106" height="30" as="geometry" />
        </mxCell>
        <mxCell id="DXd-vJ10sq-LHo_4Uk0n-302" style="edgeStyle=orthogonalEdgeStyle;rounded=0;orthogonalLoop=1;jettySize=auto;html=1;entryX=0.994;entryY=0.6;entryDx=0;entryDy=0;entryPerimeter=0;startArrow=block;startFill=1;endArrow=none;" edge="1" parent="1" source="DXd-vJ10sq-LHo_4Uk0n-301" target="14">
          <mxGeometry relative="1" as="geometry" />
        </mxCell>
        <mxCell id="DXd-vJ10sq-LHo_4Uk0n-303" style="edgeStyle=orthogonalEdgeStyle;rounded=0;orthogonalLoop=1;jettySize=auto;html=1;entryX=1.006;entryY=0.5;entryDx=0;entryDy=0;entryPerimeter=0;startArrow=block;startFill=0;endArrow=none;" edge="1" parent="1" source="DXd-vJ10sq-LHo_4Uk0n-301" target="DXd-vJ10sq-LHo_4Uk0n-286">
          <mxGeometry relative="1" as="geometry" />
        </mxCell>
        <mxCell id="DXd-vJ10sq-LHo_4Uk0n-304" value="读取模型、采集数据" style="text;html=1;align=center;verticalAlign=middle;whiteSpace=wrap;rounded=0;" vertex="1" parent="1">
          <mxGeometry x="935.5" y="370" width="95" height="30" as="geometry" />
        </mxCell>
      </root>
    </mxGraphModel>
  </diagram>
</mxfile>
